<mxfile host="app.diagrams.net" modified="2022-02-05T09:03:39.190Z" agent="5.0 (Windows NT 10.0; Win64; x64) AppleWebKit/537.36 (KHTML, like Gecko) Chrome/97.0.4692.99 Safari/537.36 Edg/97.0.1072.76" etag="KVTK-Cj9VewNSeIbuiCM" version="16.5.2" type="github">
  <diagram id="RZbKDoNw33tvXICRSA83" name="Page-1">
    <mxGraphModel dx="1422" dy="832" grid="1" gridSize="10" guides="1" tooltips="1" connect="1" arrows="1" fold="1" page="1" pageScale="1" pageWidth="850" pageHeight="1100" math="0" shadow="0">
      <root>
        <mxCell id="0" />
        <mxCell id="1" parent="0" />
        <mxCell id="o_DKsuO73iJkefLuo-gP-13" style="edgeStyle=entityRelationEdgeStyle;rounded=0;orthogonalLoop=1;jettySize=auto;html=1;exitX=1;exitY=0.5;exitDx=0;exitDy=0;strokeColor=default;" edge="1" parent="1" source="o_DKsuO73iJkefLuo-gP-8" target="o_DKsuO73iJkefLuo-gP-11">
          <mxGeometry relative="1" as="geometry" />
        </mxCell>
        <mxCell id="o_DKsuO73iJkefLuo-gP-17" style="edgeStyle=entityRelationEdgeStyle;rounded=0;orthogonalLoop=1;jettySize=auto;html=1;exitX=1;exitY=0.5;exitDx=0;exitDy=0;entryX=0;entryY=0.5;entryDx=0;entryDy=0;entryPerimeter=0;strokeColor=default;" edge="1" parent="1" source="o_DKsuO73iJkefLuo-gP-8" target="o_DKsuO73iJkefLuo-gP-16">
          <mxGeometry relative="1" as="geometry" />
        </mxCell>
        <mxCell id="o_DKsuO73iJkefLuo-gP-20" style="edgeStyle=entityRelationEdgeStyle;rounded=0;orthogonalLoop=1;jettySize=auto;html=1;exitX=1;exitY=0.5;exitDx=0;exitDy=0;entryX=0;entryY=0.5;entryDx=0;entryDy=0;entryPerimeter=0;strokeColor=default;" edge="1" parent="1" source="o_DKsuO73iJkefLuo-gP-8" target="o_DKsuO73iJkefLuo-gP-19">
          <mxGeometry relative="1" as="geometry" />
        </mxCell>
        <mxCell id="o_DKsuO73iJkefLuo-gP-8" value="2form.co" style="rounded=1;whiteSpace=wrap;html=1;absoluteArcSize=1;arcSize=14;strokeWidth=2;" vertex="1" parent="1">
          <mxGeometry x="210" y="170" width="120" height="100" as="geometry" />
        </mxCell>
        <mxCell id="o_DKsuO73iJkefLuo-gP-10" style="edgeStyle=entityRelationEdgeStyle;rounded=0;orthogonalLoop=1;jettySize=auto;html=1;exitX=1;exitY=0.5;exitDx=0;exitDy=0;strokeColor=default;" edge="1" parent="1" source="o_DKsuO73iJkefLuo-gP-9" target="o_DKsuO73iJkefLuo-gP-8">
          <mxGeometry relative="1" as="geometry" />
        </mxCell>
        <mxCell id="o_DKsuO73iJkefLuo-gP-9" value="Scanned form, jpg, pdf (filled or not)" style="html=1;strokeWidth=2;shape=manualInput;whiteSpace=wrap;rounded=1;size=26;arcSize=11;verticalAlign=bottom;" vertex="1" parent="1">
          <mxGeometry x="20" y="130" width="100" height="80" as="geometry" />
        </mxCell>
        <mxCell id="o_DKsuO73iJkefLuo-gP-15" style="edgeStyle=entityRelationEdgeStyle;rounded=0;orthogonalLoop=1;jettySize=auto;html=1;exitX=1;exitY=0.5;exitDx=0;exitDy=0;entryX=0;entryY=0.5;entryDx=0;entryDy=0;entryPerimeter=0;strokeColor=default;" edge="1" parent="1" source="o_DKsuO73iJkefLuo-gP-11" target="o_DKsuO73iJkefLuo-gP-14">
          <mxGeometry relative="1" as="geometry" />
        </mxCell>
        <mxCell id="o_DKsuO73iJkefLuo-gP-23" style="rounded=0;orthogonalLoop=1;jettySize=auto;html=1;exitX=0.5;exitY=1;exitDx=0;exitDy=0;entryX=0.5;entryY=0;entryDx=0;entryDy=0;strokeColor=default;" edge="1" parent="1" source="o_DKsuO73iJkefLuo-gP-11" target="o_DKsuO73iJkefLuo-gP-21">
          <mxGeometry relative="1" as="geometry" />
        </mxCell>
        <mxCell id="o_DKsuO73iJkefLuo-gP-11" value="Form template" style="shape=parallelogram;html=1;strokeWidth=2;perimeter=parallelogramPerimeter;whiteSpace=wrap;rounded=1;arcSize=12;size=0.23;" vertex="1" parent="1">
          <mxGeometry x="400" y="50" width="130" height="40" as="geometry" />
        </mxCell>
        <mxCell id="o_DKsuO73iJkefLuo-gP-14" value="Storage" style="strokeWidth=2;html=1;shape=mxgraph.flowchart.database;whiteSpace=wrap;" vertex="1" parent="1">
          <mxGeometry x="740" y="120" width="90" height="60" as="geometry" />
        </mxCell>
        <mxCell id="o_DKsuO73iJkefLuo-gP-18" style="edgeStyle=entityRelationEdgeStyle;rounded=0;orthogonalLoop=1;jettySize=auto;html=1;exitX=1;exitY=0.5;exitDx=0;exitDy=0;exitPerimeter=0;strokeColor=default;" edge="1" parent="1" source="o_DKsuO73iJkefLuo-gP-16" target="o_DKsuO73iJkefLuo-gP-14">
          <mxGeometry relative="1" as="geometry" />
        </mxCell>
        <mxCell id="o_DKsuO73iJkefLuo-gP-16" value="Responses" style="strokeWidth=2;html=1;shape=mxgraph.flowchart.direct_data;whiteSpace=wrap;" vertex="1" parent="1">
          <mxGeometry x="520" y="130" width="100" height="40" as="geometry" />
        </mxCell>
        <mxCell id="o_DKsuO73iJkefLuo-gP-25" style="edgeStyle=orthogonalEdgeStyle;rounded=0;orthogonalLoop=1;jettySize=auto;html=1;exitX=1;exitY=0.5;exitDx=0;exitDy=0;exitPerimeter=0;entryX=0.5;entryY=1;entryDx=0;entryDy=0;entryPerimeter=0;strokeColor=default;curved=1;" edge="1" parent="1" source="o_DKsuO73iJkefLuo-gP-19" target="o_DKsuO73iJkefLuo-gP-16">
          <mxGeometry relative="1" as="geometry" />
        </mxCell>
        <mxCell id="o_DKsuO73iJkefLuo-gP-19" value="Embeddable form" style="strokeWidth=2;html=1;shape=mxgraph.flowchart.display;whiteSpace=wrap;" vertex="1" parent="1">
          <mxGeometry x="610" y="260" width="110" height="50" as="geometry" />
        </mxCell>
        <mxCell id="o_DKsuO73iJkefLuo-gP-24" style="edgeStyle=none;rounded=0;orthogonalLoop=1;jettySize=auto;html=1;exitX=1;exitY=0.5;exitDx=0;exitDy=0;entryX=0.2;entryY=0.86;entryDx=0;entryDy=0;entryPerimeter=0;strokeColor=default;" edge="1" parent="1" source="o_DKsuO73iJkefLuo-gP-21" target="o_DKsuO73iJkefLuo-gP-19">
          <mxGeometry relative="1" as="geometry" />
        </mxCell>
        <mxCell id="o_DKsuO73iJkefLuo-gP-21" value="Add form validations" style="verticalLabelPosition=middle;verticalAlign=middle;html=1;shape=trapezoid;perimeter=trapezoidPerimeter;whiteSpace=wrap;size=0.23;arcSize=10;flipV=1;labelPosition=center;align=center;" vertex="1" parent="1">
          <mxGeometry x="383.75" y="330" width="162.5" height="40" as="geometry" />
        </mxCell>
      </root>
    </mxGraphModel>
  </diagram>
</mxfile>
